<svg width="56" height="56" viewBox="0 0 56 56" fill="none" xmlns="http://www.w3.org/2000/svg">
<g clip-path="url(#clip0)">
<path d="M55.432 29.95C56.1893 29.5713 56.1893 28.3407 55.432 27.9621C49.5629 24.7435 43.5992 21.809 37.1622 20.1051C36.2155 19.9157 35.2689 20.957 35.8369 21.809C37.1622 23.7022 38.7714 25.3115 40.6647 26.7314C27.4119 26.3528 13.6859 24.5542 0.622432 27.6781C-0.324192 27.8674 -0.134869 29.4765 0.811908 29.3818C14.3486 27.6781 27.7907 29.0033 41.3275 29.1925C39.9075 30.8018 38.4876 32.411 37.0677 33.9256C36.405 34.5883 36.7837 36.0084 37.9196 35.9137C44.1672 35.1563 50.0363 33.0737 55.432 29.95ZM44.1672 28.9087C45.0191 28.3407 44.8298 26.7314 43.5045 26.7314C43.4099 26.7314 43.3152 26.7314 43.3152 26.7314C42.1793 25.5955 41.0433 24.5542 39.9074 23.3236C44.2618 24.8382 48.3323 26.7314 52.4028 28.9085C48.711 30.8018 44.9245 32.2217 40.854 32.979C41.8006 31.9377 42.7472 30.8018 43.7885 29.7603C44.1672 29.5713 44.2618 29.1925 44.1672 28.9087Z" fill="white"/>
</g>
<defs>
<clipPath id="clip0">
<rect width="56" height="56" fill="white" transform="translate(56) rotate(90)"/>
</clipPath>
</defs>
</svg>
